<svg width="224" height="96" viewBox="0 0 224 96" fill="none" xmlns="http://www.w3.org/2000/svg">
<g clip-path="url(#clip0_0_1)">
<path d="M62.3 86L36.9 54.9V86H22.9V16.2H36.9V47.5L62.3 16.2H79.2L50.4 50.8L80 86H62.3ZM103.209 12V86H89.2086V12H103.209ZM113.441 58.1C113.441 52.5 114.541 47.5333 116.741 43.2C119.007 38.8667 122.041 35.5333 125.841 33.2C129.707 30.8667 134.007 29.7 138.741 29.7C142.874 29.7 146.474 30.5333 149.541 32.2C152.674 33.8667 155.174 35.9667 157.041 38.5V30.6H171.141V86H157.041V77.9C155.241 80.5 152.741 82.6667 149.541 84.4C146.407 86.0667 142.774 86.9 138.641 86.9C133.974 86.9 129.707 85.7 125.841 83.3C122.041 80.9 119.007 77.5333 116.741 73.2C114.541 68.8 113.441 63.7667 113.441 58.1ZM157.041 58.3C157.041 54.9 156.374 52 155.041 49.6C153.707 47.1333 151.907 45.2667 149.641 44C147.374 42.6667 144.941 42 142.341 42C139.741 42 137.341 42.6333 135.141 43.9C132.941 45.1667 131.141 47.0333 129.741 49.5C128.407 51.9 127.741 54.7667 127.741 58.1C127.741 61.4333 128.407 64.3667 129.741 66.9C131.141 69.3667 132.941 71.2667 135.141 72.6C137.407 73.9333 139.807 74.6 142.341 74.6C144.941 74.6 147.374 73.9667 149.641 72.7C151.907 71.3667 153.707 69.5 155.041 67.1C156.374 64.6333 157.041 61.7 157.041 58.3Z" fill="url(#paint0_linear_0_1)"/>
<path d="M190.902 68.5C192.057 66.5 194.943 66.5 196.098 68.5L204.325 82.75C205.48 84.75 204.037 87.25 201.727 87.25H185.273C182.963 87.25 181.52 84.75 182.675 82.75L190.902 68.5Z" fill="url(#paint1_linear_0_1)"/>
</g>
<defs>
<linearGradient id="paint0_linear_0_1" x1="97" y1="13" x2="97" y2="86" gradientUnits="userSpaceOnUse">
<stop stop-color="#7DFFC8"/>
<stop offset="1" stop-color="#D39AFF"/>
</linearGradient>
<linearGradient id="paint1_linear_0_1" x1="193.5" y1="64" x2="193.5" y2="86" gradientUnits="userSpaceOnUse">
<stop stop-color="#7DFFC8"/>
<stop offset="1" stop-color="#D39AFF"/>
</linearGradient>
<clipPath id="clip0_0_1">
<rect width="224" height="96" fill="white"/>
</clipPath>
</defs>
</svg>
